<?xml version="1.0" encoding="UTF-8" standalone="no"?>
<!DOCTYPE svg PUBLIC "-//W3C//DTD SVG 1.1//EN" "http://www.w3.org/Graphics/SVG/1.1/DTD/svg11.dtd">
<svg width="100%" height="100%" viewBox="0 0 2048 2048" version="1.1" xmlns="http://www.w3.org/2000/svg" xmlns:xlink="http://www.w3.org/1999/xlink" xml:space="preserve" xmlns:serif="http://www.serif.com/" style="fill-rule:evenodd;clip-rule:evenodd;stroke-linejoin:round;stroke-miterlimit:2;">
    <g transform="matrix(0.1,0,0,-0.1,0,2048)">
        <g transform="matrix(21.718,0,0,-17.952,-9041.42,24436.8)">
            <rect x="416.31" y="220.408" width="942.996" height="1140.82" style="fill:white;"/>
        </g>
        <path d="M0,20480L0,10061L1393,10057C2561,10053 2814,10050 2965,10037C3519,9988 3841,9909 4185,9740C4845,9417 5332,8817 5530,8084C5605,7806 5640,7530 5640,7215C5640,6701 5545,6280 5337,5876C5094,5404 4670,4991 4185,4755C3974,4652 3782,4585 3397,4483L3329,4464L4524,2832C5182,1935 5720,1198 5720,1195C5720,1192 5264,1190 4708,1190L3695,1191L1375,4577L1372,2883L1370,1190L0,1190L0,0L20480,0L20480,1180L19240,1180L19240,2037L19068,1866C18799,1598 18580,1436 18309,1301C18051,1173 17816,1101 17495,1053C17320,1027 16788,1027 16610,1053C16015,1140 15526,1339 15077,1676C14406,2180 13959,2905 13781,3777C13730,4025 13716,4187 13716,4515C13716,4847 13725,4963 13775,5237C13956,6220 14521,7074 15330,7585C15462,7668 15760,7816 15905,7869C16135,7954 16402,8020 16650,8052C16810,8072 17300,8069 17460,8047C18091,7958 18626,7716 19008,7346L19110,7247L19110,10050L20480,10050L20480,20480L0,20480ZM9955,7979C10615,7929 11240,7686 11770,7274C11913,7163 12158,6920 12274,6775C12634,6323 12870,5813 12985,5235C13081,4753 13094,4202 13017,3860L13005,3805L10432,3802C9018,3801 7860,3798 7860,3795C7860,3772 7948,3531 7984,3456C8133,3147 8404,2874 8719,2716C8984,2583 9277,2514 9620,2503C10092,2488 10456,2578 10752,2782C10854,2853 10999,2982 11085,3079L11155,3158L12899,3160L12869,3072C12795,2858 12617,2549 12435,2315C12124,1917 11678,1558 11233,1348C10434,971 9378,929 8475,1241C7937,1426 7480,1715 7090,2116C6720,2496 6470,2906 6304,3406C6229,3633 6191,3800 6153,4070C6128,4250 6128,4721 6153,4915C6190,5198 6252,5458 6344,5711C6733,6784 7642,7606 8747,7884C9149,7984 9509,8013 9955,7979Z" style="fill:rgb(162,30,30);fill-rule:nonzero;"/>
        <path d="M9480,6524C9068,6487 8744,6379 8480,6192C8358,6106 8184,5931 8098,5810C7993,5662 7877,5424 7825,5253L7812,5210L11492,5210L11485,5243C11468,5319 11406,5493 11359,5590C11117,6097 10670,6408 10051,6500C9920,6520 9586,6534 9480,6524Z" style="fill:rgb(162,30,30);fill-rule:nonzero;"/>
        <path d="M1370,8482L1370,5820L1798,5820C2533,5820 2831,5847 3133,5941C3601,6085 3854,6352 3952,6802C3980,6933 3988,7274 3966,7415C3927,7674 3826,7895 3673,8060C3498,8250 3280,8364 2983,8420C2727,8468 2657,8472 1998,8477L1370,8482Z" style="fill:rgb(162,30,30);fill-rule:nonzero;"/>
        <path d="M17101,6599C16486,6552 15924,6197 15605,5655C15255,5061 15226,4287 15530,3633C15681,3307 15948,2998 16245,2804C16730,2488 17344,2408 17893,2590C18518,2798 18999,3335 19164,4011C19209,4199 19224,4329 19224,4545C19224,4824 19192,5024 19108,5270C18848,6031 18198,6540 17408,6600C17263,6611 17253,6611 17101,6599Z" style="fill:rgb(162,30,30);fill-rule:nonzero;"/>
    </g>
</svg>
